<svg width="18" height="12" viewBox="0 0 18 12" fill="none" xmlns="http://www.w3.org/2000/svg">
<path fill-rule="evenodd" clip-rule="evenodd" d="M16.3623 5.72778C16.3623 5.94476 16.2761 6.15285 16.1227 6.30628C15.9693 6.45971 15.7612 6.5459 15.5442 6.5459L0.818097 6.5459C0.601119 6.5459 0.393027 6.45971 0.239601 6.30628C0.086174 6.15285 -1.91187e-05 5.94476 -1.91092e-05 5.72778C-1.90998e-05 5.51081 0.086174 5.30271 0.239601 5.14929C0.393027 4.99586 0.601119 4.90967 0.818097 4.90967L15.5442 4.90967C15.7612 4.90967 15.9693 4.99586 16.1227 5.14929C16.2761 5.30272 16.3623 5.51081 16.3623 5.72778Z" fill="#1643B3"/>
<path fill-rule="evenodd" clip-rule="evenodd" d="M17.7596 5.14862C17.8358 5.22462 17.8963 5.3149 17.9375 5.41429C17.9788 5.51368 18 5.62024 18 5.72785C18 5.83546 17.9788 5.94201 17.9375 6.0414C17.8963 6.1408 17.8358 6.23108 17.7596 6.30707L12.851 11.2158C12.6973 11.3694 12.489 11.4557 12.2717 11.4557C12.0545 11.4557 11.8461 11.3694 11.6925 11.2158C11.5389 11.0622 11.4526 10.8538 11.4526 10.6365C11.4526 10.4193 11.5389 10.2109 11.6925 10.0573L16.0236 5.72785L11.6925 1.39838C11.5389 1.24476 11.4526 1.0364 11.4526 0.81915C11.4526 0.601898 11.5389 0.393544 11.6925 0.239923C11.8461 0.086303 12.0545 -2.59887e-07 12.2717 -2.50391e-07C12.489 -2.40895e-07 12.6973 0.086303 12.851 0.239923L17.7596 5.14862Z" fill="#1643B3"/>
</svg>
