<svg enable-background="new 80 0 480 480" height="480" viewBox="80 0 480 480" width="480" xmlns="http://www.w3.org/2000/svg"><g fill="#102f7c"><path d="m259.938 215.578v-.702c-.144.235-.342.471-.466.702z"/><path d="m0 0v480h480v-480zm149.298 398.771h-71.215v-214.255h71.215zm-35.608-243.498h-.471c-23.889 0-39.374-16.458-39.374-37.029 0-21.023 15.937-37.015 40.311-37.015 24.378 0 39.36 15.992 39.826 37.015.001 20.571-15.447 37.029-40.292 37.029zm292.464 243.498h-71.234v-114.626c0-28.791-10.292-48.443-36.074-48.443-19.689 0-31.39 13.232-36.544 26.05-1.874 4.578-2.363 10.942-2.363 17.363v119.658h-71.249s.955-194.155 0-214.255h71.248v30.36c9.466-14.565 26.358-35.39 64.2-35.39 46.878 0 82.016 30.615 82.016 96.42z"/></g></svg>