<?xml version="1.0" encoding="utf-8"?>
<!-- Generator: Adobe Illustrator 15.0.0, SVG Export Plug-In . SVG Version: 6.00 Build 0)  -->
<!DOCTYPE svg PUBLIC "-//W3C//DTD SVG 1.1//EN" "http://www.w3.org/Graphics/SVG/1.1/DTD/svg11.dtd">
<svg version="1.1" id="Layer_1" xmlns="http://www.w3.org/2000/svg" xmlns:xlink="http://www.w3.org/1999/xlink" x="0px" y="0px"
	 width="480px" height="480px" viewBox="0 0 480 480" enable-background="new 0 0 480 480" xml:space="preserve">
<path fill="#102F7C" d="M259.938,215.578v-0.702c-0.144,0.235-0.342,0.471-0.465,0.702H259.938z"/>
<path fill="#102F7C" d="M0,0v480h480V0H0z M149.298,398.771H78.083V184.516h71.215V398.771z M113.69,155.273h-0.471
	c-23.889,0-39.374-16.458-39.374-37.029c0-21.023,15.937-37.015,40.311-37.015c24.378,0,39.36,15.992,39.826,37.015
	C153.983,138.815,138.535,155.273,113.69,155.273z M406.154,398.771H334.92V284.145c0-28.791-10.292-48.442-36.074-48.442
	c-19.688,0-31.39,13.231-36.544,26.05c-1.874,4.578-2.362,10.941-2.362,17.363v119.658h-71.25c0,0,0.955-194.155,0-214.255h71.248
	v30.36c9.467-14.565,26.358-35.39,64.201-35.39c46.877,0,82.016,30.615,82.016,96.42V398.771z"/>
</svg>
