<svg width="55" height="55" viewBox="0 0 55 55" fill="none" xmlns="http://www.w3.org/2000/svg">
<path d="M45.4992 31.3156L51.9922 31.3156C52.7041 31.3156 53.2813 30.7824 53.2813 30.1245L53.2813 24.8469C53.2813 23.9849 52.3025 23.3794 51.3878 23.5487C49.3053 23.9342 46.25 23.8103 46.25 19.7656C46.25 15.7209 49.3053 15.5971 51.3878 15.9825C52.3025 16.1518 53.2813 15.5463 53.2813 14.6844L53.2813 9.40672C53.2813 8.7489 52.7041 8.21562 51.9922 8.21562L45.4992 8.21562C44.5663 8.21562 43.9111 7.31125 44.0943 6.46609C44.5114 4.54182 44.3774 1.71875 40 1.71875C35.6226 1.71875 35.4886 4.54181 35.9057 6.46609C36.0889 7.31125 35.4337 8.21562 34.5008 8.21563L28.7891 8.21563C28.0771 8.21563 27.5 8.7489 27.5 9.40672L27.5 14.6844C27.5 15.5463 28.4788 16.1518 29.3934 15.9825C31.476 15.5971 34.5312 15.7209 34.5312 19.7656C34.5313 23.8104 31.476 23.9342 29.3934 23.5487C28.4788 23.3794 27.5 23.9849 27.5 24.8469L27.5 30.1245C27.5 30.7824 28.0771 31.3156 28.7891 31.3156L34.5008 31.3156C35.4337 31.3156 36.0889 32.22 35.9057 33.0652C35.4886 34.9894 35.6226 37.8125 40 37.8125C44.3774 37.8125 44.5114 34.9894 44.0943 33.0652C43.9111 32.22 44.5663 31.3156 45.4992 31.3156Z" fill="#D2DDF9"/>
<path d="M22.9772 44.9969L30.3359 44.9969C31.1428 44.9969 31.7969 44.3874 31.7969 43.6356L31.7969 37.604C31.7969 36.6189 30.6876 35.927 29.651 36.1204C27.2908 36.5609 23.8281 36.4194 23.8281 31.7969C23.8281 27.1743 27.2908 27.0328 29.651 27.4733C30.6876 27.6668 31.7969 26.9748 31.7969 25.9897L31.7969 19.9581C31.7969 19.2063 31.1428 18.5969 30.3359 18.5969L22.9772 18.5969C21.92 18.5969 21.1773 17.5633 21.385 16.5974C21.8577 14.3982 21.7059 11.1719 16.7448 11.1719C11.7837 11.1719 11.6319 14.3982 12.1046 16.5974C12.3122 17.5633 11.5696 18.5969 10.5124 18.5969L4.03906 18.5969C3.2322 18.5969 2.57812 19.2063 2.57812 19.9581L2.57812 25.9897C2.57812 26.9748 3.68738 27.6668 4.72401 27.4733C7.08423 27.0328 10.5469 27.1743 10.5469 31.7969C10.5469 36.4194 7.08424 36.5609 4.72401 36.1204C3.68738 35.927 2.57812 36.6189 2.57812 37.604L2.57812 43.6356C2.57812 44.3874 3.2322 44.9969 4.03906 44.9969L10.5124 44.9969C11.5696 44.9969 12.3122 46.0304 12.1046 46.9963C11.6319 49.1955 11.7837 52.4219 16.7448 52.4219C21.7059 52.4219 21.8577 49.1955 21.385 46.9963C21.1773 46.0304 21.92 44.9969 22.9772 44.9969Z" stroke="#1643B3" stroke-linecap="round" stroke-linejoin="round"/>
</svg>
