<svg width="53" height="53" viewBox="0 0 53 53" fill="none" xmlns="http://www.w3.org/2000/svg">
<path fill-rule="evenodd" clip-rule="evenodd" d="M26.5 14.6702C19.1822 14.6702 13.25 20.6024 13.25 27.9202C13.25 35.2379 19.1822 41.1702 26.5 41.1702C33.8178 41.1702 39.75 35.2379 39.75 27.9202C39.75 20.6024 33.8178 14.6702 26.5 14.6702ZM26.5 20.7032C22.8411 20.7032 19.875 23.6693 19.875 27.3282C19.875 30.9871 22.8411 33.9532 26.5 33.9532C30.1589 33.9532 33.125 30.9871 33.125 27.3282C33.125 23.6693 30.1589 20.7032 26.5 20.7032Z" fill="#D2DDF9"/>
<path d="M26 10.0558C26 10.3319 26.2239 10.5558 26.5 10.5558C26.7761 10.5558 27 10.3319 27 10.0558H26ZM27 2.48438C27 2.20823 26.7761 1.98438 26.5 1.98438C26.2239 1.98438 26 2.20823 26 2.48438H27ZM17.7715 11.8174C17.895 12.0643 18.1954 12.1645 18.4424 12.041C18.6893 11.9175 18.7895 11.6171 18.666 11.3701L17.7715 11.8174ZM15.3535 4.74514C15.23 4.49815 14.9296 4.39804 14.6826 4.52154C14.4356 4.64503 14.3355 4.94537 14.459 5.19236L15.3535 4.74514ZM34.334 11.3701C34.2105 11.6171 34.3106 11.9175 34.5576 12.041C34.8046 12.1645 35.105 12.0643 35.2285 11.8174L34.334 11.3701ZM38.541 5.19236C38.6645 4.94537 38.5643 4.64503 38.3174 4.52154C38.0704 4.39804 37.77 4.49815 37.6465 4.74514L38.541 5.19236ZM42.7089 14.5527C42.5137 14.748 42.5137 15.0645 42.7089 15.2598C42.9042 15.4551 43.2208 15.4551 43.4161 15.2598L42.7089 14.5527ZM47.5567 11.1192C47.7519 10.9239 47.7519 10.6073 47.5567 10.4121C47.3614 10.2168 47.0448 10.2168 46.8496 10.4121L47.5567 11.1192ZM9.58395 15.2598C9.77921 15.4551 10.0958 15.4551 10.2911 15.2598C10.4863 15.0645 10.4863 14.748 10.2911 14.5527L9.58395 15.2598ZM6.15043 10.4121C5.95517 10.2168 5.63858 10.2168 5.44332 10.4121C5.24806 10.6073 5.24806 10.9239 5.44332 11.1192L6.15043 10.4121ZM3.1967 27.7432L2.74012 27.5394L2.74012 27.5394L3.1967 27.7432ZM3.27546 31.1786L2.83876 31.4221L2.83876 31.4221L3.27546 31.1786ZM49.8033 27.7432L49.3467 27.947L49.3467 27.947L49.8033 27.7432ZM49.7245 31.1786L50.1612 31.4221L50.1612 31.4221L49.7245 31.1786ZM2.48438 50.0156C2.20823 50.0156 1.98438 50.2395 1.98438 50.5156C1.98438 50.7918 2.20823 51.0156 2.48438 51.0156V50.0156ZM50.5156 51.0156C50.7918 51.0156 51.0156 50.7918 51.0156 50.5156C51.0156 50.2395 50.7918 50.0156 50.5156 50.0156V51.0156ZM27 10.0558V2.48438H26V10.0558H27ZM18.666 11.3701L15.3535 4.74514L14.459 5.19236L17.7715 11.8174L18.666 11.3701ZM35.2285 11.8174L38.541 5.19236L37.6465 4.74514L34.334 11.3701L35.2285 11.8174ZM43.4161 15.2598L47.5567 11.1192L46.8496 10.4121L42.7089 14.5527L43.4161 15.2598ZM10.2911 14.5527L6.15043 10.4121L5.44332 11.1192L9.58395 15.2598L10.2911 14.5527ZM3.65327 27.947C5.07948 24.752 7.20428 21.5699 10.7429 19.1818C14.2812 16.7939 19.2779 15.1697 26.5 15.1697V14.1697C19.125 14.1697 13.9217 15.8301 10.1835 18.3529C6.44562 20.8754 4.21735 24.2301 2.74012 27.5394L3.65327 27.947ZM2.83876 31.4221C6.34565 37.7118 15.0802 41.6697 26.5 41.6697V40.6697C15.2432 40.6697 6.96296 36.7655 3.71217 30.9351L2.83876 31.4221ZM50.2599 27.5394C48.7826 24.2301 46.5544 20.8754 42.8165 18.3529C39.0783 15.8301 33.875 14.1697 26.5 14.1697V15.1697C33.7221 15.1697 38.7188 16.7939 42.2571 19.1818C45.7957 21.5699 47.9205 24.752 49.3467 27.947L50.2599 27.5394ZM49.2878 30.9351C46.037 36.7655 37.7568 40.6697 26.5 40.6697V41.6697C37.9198 41.6697 46.6544 37.7118 50.1612 31.4221L49.2878 30.9351ZM49.3467 27.947C49.7854 28.9297 49.7892 30.036 49.2878 30.9351L50.1612 31.4221C50.8381 30.2082 50.8074 28.7659 50.2599 27.5394L49.3467 27.947ZM2.74012 27.5394C2.19262 28.7659 2.16191 30.2082 2.83876 31.4221L3.71217 30.9351C3.21084 30.036 3.21461 28.9297 3.65327 27.947L2.74012 27.5394ZM2.48438 51.0156H50.5156V50.0156H2.48438V51.0156ZM26.5 33.4531C23.1173 33.4531 20.375 30.7109 20.375 27.3281H19.375C19.375 31.2632 22.565 34.4531 26.5 34.4531V33.4531ZM32.625 27.3281C32.625 30.7109 29.8827 33.4531 26.5 33.4531V34.4531C30.435 34.4531 33.625 31.2632 33.625 27.3281H32.625ZM26.5 21.2031C29.8827 21.2031 32.625 23.9454 32.625 27.3281H33.625C33.625 23.3931 30.435 20.2031 26.5 20.2031V21.2031ZM26.5 20.2031C22.565 20.2031 19.375 23.3931 19.375 27.3281H20.375C20.375 23.9454 23.1173 21.2031 26.5 21.2031V20.2031Z" fill="#1643B3"/>
</svg>
