<?xml version="1.0" encoding="utf-8"?>
<!-- Generator: Adobe Illustrator 15.0.0, SVG Export Plug-In . SVG Version: 6.00 Build 0)  -->
<!DOCTYPE svg PUBLIC "-//W3C//DTD SVG 1.1//EN" "http://www.w3.org/Graphics/SVG/1.1/DTD/svg11.dtd">
<svg version="1.1" id="Layer_1" xmlns="http://www.w3.org/2000/svg" xmlns:xlink="http://www.w3.org/1999/xlink" x="0px" y="0px"
	 width="640px" height="480px" viewBox="0 0 640 480" enable-background="new 0 0 640 480" xml:space="preserve">
<g>
	<g>
		<path fill="#102F7C" d="M547.216,77.898l-65.454-65.509c-16.491-16.505-45.181-16.537-61.736,0.032L126.803,308.537
			c-1.3,1.311-2.238,2.922-2.749,4.69L80.418,466.085c-1.087,3.807-0.021,7.912,2.781,10.716c2.077,2.079,4.858,3.199,7.713,3.199
			c1.001,0,2.014-0.139,2.993-0.416l152.726-43.674c1.769-0.511,3.377-1.45,4.688-2.751l295.896-293.503
			c8.246-8.252,12.784-19.214,12.784-30.878C560,97.113,555.462,86.151,547.216,77.898z M372.487,91.776l40.155,40.156
			L202.989,341.587l-15.046-30.103c-1.854-3.697-5.625-6.03-9.759-6.03h-17.47L372.487,91.776z M106.796,453.206l14.209-49.742
			l35.532,35.531L106.796,453.206z M232.729,417.229l-52.194,14.91l-52.673-52.673l14.91-52.195h28.668l18.803,37.606
			c1.055,2.11,2.77,3.825,4.879,4.88l37.606,18.803L232.729,417.229L232.729,417.229z M254.548,399.288v-17.471
			c0-4.134-2.333-7.904-6.03-9.759l-30.103-15.046l209.654-209.654l40.155,40.156L254.548,399.288z M531.822,124.486l-48.102,47.672
			l-95.877-95.877l47.64-48.069c8.246-8.246,22.606-8.246,30.853,0l65.454,65.454c4.123,4.123,6.393,9.598,6.393,15.426
			C538.183,114.919,535.913,120.395,531.822,124.486z"/>
	</g>
</g>
</svg>
