<svg width="45" height="50" viewBox="0 0 45 50" fill="none" xmlns="http://www.w3.org/2000/svg">
<rect x="18" width="22" height="45" rx="1" fill="#D2DDF9"/>
<path d="M4.01245 44.5931C4.01245 44.2775 4.35899 42.9502 4.65801 42.9502H21.4711V46.5931H4.51246C4.21344 46.5931 4.01245 44.9086 4.01245 44.5931Z" fill="#D2DDF9"/>
<path d="M4.41615 4H2.48211C1.66356 4 1 4.66356 1 5.48211V47.6111C1 48.4296 1.66356 49.0932 2.48211 49.0932H23.4309C24.2494 49.0932 24.913 48.4296 24.913 47.6111V5.4821C24.913 4.66356 24.2494 4 23.4309 4H21.4969M4.41615 4V5.59243C4.41615 6.41097 5.07971 7.07453 5.89825 7.07453H20.0148C20.8333 7.07453 21.4969 6.41097 21.4969 5.59243V4M4.41615 4H21.4969M21.4969 24.8385H4.41611M21.4969 29.6211H4.41611M21.4969 32.354H4.41611M21.4969 35.087H4.41611M21.4969 37.8199H4.41611M20.472 9.46584H5.44096C4.68628 9.46584 4.07449 10.0776 4.07449 10.8323V20.3975C4.07449 21.1522 4.68628 21.764 5.44096 21.764H20.472C21.2267 21.764 21.8385 21.1522 21.8385 20.3975V10.8323C21.8385 10.0776 21.2267 9.46584 20.472 9.46584ZM5.44096 42.9441H20.472C21.2267 42.9441 21.8385 43.5559 21.8385 44.3106V45.3354C21.8385 46.0901 21.2267 46.7019 20.472 46.7019H5.44096C4.68628 46.7019 4.0745 46.0901 4.0745 45.3354V44.3106C4.0745 43.5559 4.68628 42.9441 5.44096 42.9441Z" stroke="#1643B3" stroke-linecap="round" stroke-linejoin="round"/>
</svg>
