<svg width="55" height="55" viewBox="0 0 55 55" fill="none" xmlns="http://www.w3.org/2000/svg">
<path d="M24.0625 13.75C24.0625 20.3947 18.6759 25.7812 12.0312 25.7812C5.38657 25.7812 0 20.3947 0 13.75C0 7.10532 5.38657 1.71875 12.0312 1.71875C18.6759 1.71875 24.0625 7.10532 24.0625 13.75Z" fill="#D2DDF9"/>
<path d="M55 41.25C55 47.8947 49.6134 53.2812 42.9688 53.2812C36.3241 53.2812 30.9375 47.8947 30.9375 41.25C30.9375 34.6053 36.3241 29.2188 42.9688 29.2188C49.6134 29.2188 55 34.6053 55 41.25Z" fill="#D2DDF9"/>
<path d="M27.5 50.3438C27.7761 50.3438 28 50.1199 28 49.8438C28 49.5676 27.7761 49.3438 27.5 49.3438V50.3438ZM5.15625 27.5L5.5098 27.1464C5.40388 27.0405 5.25605 26.9877 5.10698 27.0024C4.95791 27.0172 4.82332 27.098 4.74022 27.2226L5.15625 27.5ZM27.5 4.65625C27.2239 4.65625 27 4.88011 27 5.15625C27 5.43239 27.2239 5.65625 27.5 5.65625V4.65625ZM49.8438 27.5L49.4902 27.8536C49.5961 27.9595 49.744 28.0123 49.893 27.9976C50.0421 27.9828 50.1767 27.902 50.2598 27.7774L49.8438 27.5ZM1.30272 32.3789C1.14955 32.6087 1.21164 32.9191 1.4414 33.0723C1.67116 33.2255 1.9816 33.1634 2.13478 32.9336L1.30272 32.3789ZM9.09957 32.1504C9.29483 32.3457 9.61142 32.3457 9.80668 32.1504C10.0019 31.9552 10.0019 31.6386 9.80668 31.4433L9.09957 32.1504ZM45.9004 22.8496C45.7052 22.6543 45.3886 22.6543 45.1933 22.8496C44.9981 23.0448 44.9981 23.3614 45.1933 23.5567L45.9004 22.8496ZM53.6973 22.6211C53.8505 22.3913 53.7884 22.0809 53.5586 21.9277C53.3288 21.7745 53.0184 21.8366 52.8652 22.0664L53.6973 22.6211ZM18.4062 13.75C18.4062 17.2708 15.5521 20.125 12.0312 20.125V21.125C16.1044 21.125 19.4062 17.8231 19.4062 13.75H18.4062ZM12.0312 20.125C8.51043 20.125 5.65625 17.2708 5.65625 13.75H4.65625C4.65625 17.8231 7.95815 21.125 12.0312 21.125V20.125ZM5.65625 13.75C5.65625 10.2292 8.51043 7.375 12.0312 7.375V6.375C7.95815 6.375 4.65625 9.6769 4.65625 13.75H5.65625ZM12.0312 7.375C15.5521 7.375 18.4062 10.2292 18.4062 13.75H19.4062C19.4062 9.6769 16.1044 6.375 12.0312 6.375V7.375ZM49.3438 41.25C49.3438 44.7708 46.4896 47.625 42.9688 47.625V48.625C47.0419 48.625 50.3438 45.3231 50.3438 41.25H49.3438ZM42.9688 47.625C39.4479 47.625 36.5938 44.7708 36.5938 41.25H35.5938C35.5938 45.3231 38.8956 48.625 42.9688 48.625V47.625ZM36.5938 41.25C36.5938 37.7292 39.4479 34.875 42.9688 34.875V33.875C38.8956 33.875 35.5938 37.1769 35.5938 41.25H36.5938ZM42.9688 34.875C46.4896 34.875 49.3438 37.7292 49.3438 41.25H50.3438C50.3438 37.1769 47.0419 33.875 42.9688 33.875V34.875ZM27.5 49.3438C15.436 49.3438 5.65625 39.564 5.65625 27.5H4.65625C4.65625 40.1163 14.8837 50.3438 27.5 50.3438V49.3438ZM27.5 5.65625C39.564 5.65625 49.3438 15.436 49.3438 27.5H50.3438C50.3438 14.8837 40.1163 4.65625 27.5 4.65625V5.65625ZM4.74022 27.2226L1.30272 32.3789L2.13478 32.9336L5.57228 27.7774L4.74022 27.2226ZM4.8027 27.8536L9.09957 32.1504L9.80668 31.4433L5.5098 27.1464L4.8027 27.8536ZM50.1973 27.1464L45.9004 22.8496L45.1933 23.5567L49.4902 27.8536L50.1973 27.1464ZM50.2598 27.7774L53.6973 22.6211L52.8652 22.0664L49.4277 27.2226L50.2598 27.7774Z" fill="#1643B3"/>
</svg>
