<?xml version="1.0" encoding="utf-8"?>
<!-- Generator: Adobe Illustrator 15.0.0, SVG Export Plug-In . SVG Version: 6.00 Build 0)  -->
<!DOCTYPE svg PUBLIC "-//W3C//DTD SVG 1.1//EN" "http://www.w3.org/Graphics/SVG/1.1/DTD/svg11.dtd">
<svg version="1.1" id="Capa_1" xmlns="http://www.w3.org/2000/svg" xmlns:xlink="http://www.w3.org/1999/xlink" x="0px" y="0px"
	 width="640px" height="480px" viewBox="0 0 640 480" enable-background="new 0 0 640 480" xml:space="preserve">
<g>
	<g>
		<path fill="#102F7C" d="M558.223,234.319c-3.78-5.5-94.622-134.322-238.224-134.322c-123.222,0-233.024,128.083-237.644,133.542
			c-3.14,3.72-3.14,9.18,0,12.919c4.62,5.461,114.422,133.543,237.644,133.543c123.223,0,233.023-128.082,237.644-133.543
			C560.543,243.02,560.803,238.04,558.223,234.319z M319.999,360.002c-98.781,0-192.703-94.201-216.563-120.002
			c23.82-25.82,117.642-120.002,216.563-120.002c115.581,0,197.163,94.062,217.083,119.462
			C514.081,264.439,419.62,360.002,319.999,360.002z"/>
	</g>
</g>
<g>
	<g>
		<path fill="#102F7C" d="M319.999,159.998c-44.12,0-80.001,35.881-80.001,80.001S275.879,320,319.999,320S400,284.119,400,239.999
			S364.119,159.998,319.999,159.998z M319.999,300.001c-33.08,0-60.001-26.921-60.001-60.001s26.921-60.001,60.001-60.001
			S380,206.92,380,240S353.079,300.001,319.999,300.001z"/>
	</g>
</g>
</svg>
